<svg xmlns="http://www.w3.org/2000/svg" width="54.5" height="59.2" viewBox="0 0 54.5 59.2">
    <g fill="#fff">
        <path id="Path_12133_1_" class="st0" d="M28.9 41.9V1h6.4c2.7-.1 5.5.1 8.2.7 2.3.5 4.3 1.8 5.8 3.6 1.4 1.8 2.2 4 2.2 6.2 0 1.5-.3 2.9-1 4.2-.8 1.4-1.9 2.6-3.2 3.6 2.2.9 4.1 2.4 5.4 4.4 1.2 1.9 1.8 4 1.7 6.2 0 2.2-.6 4.4-1.8 6.3-1.1 1.8-2.7 3.3-4.6 4.2-2.4 1-5.1 1.5-7.8 1.4l-11.3.1zM36.7 24v10.5h1.9c3.2 0 5.4-.4 6.5-1.2 1.1-.8 1.8-2.2 1.7-3.6.1-1.6-.7-3.2-2-4.2S41.3 24 38.2 24h-1.5zm0-15.5v8.6h1.7c1.5.1 3-.3 4.2-1.2.9-.8 1.4-2 1.4-3.3.1-1.2-.4-2.3-1.3-3-1.1-.8-2.6-1.2-4-1.1h-2z"/>
        <path id="Path_12134_1_" class="st0" d="M8.7 14.2H1.1c.2-4.4 1.6-7.9 4.2-10.4C7.9 1.2 11.5-.1 15.2 0c2.3 0 4.5.5 6.6 1.6 1.9 1.1 3.5 2.6 4.6 4.5 1.1 1.8 1.7 3.9 1.7 6-.1 2.7-.8 5.4-2.1 7.8-2 3.7-4.6 7-7.6 9.9l-4.6 4.8h17.6v7.2H0v-3.7l12.6-12.9c2.4-2.2 4.4-4.7 6.1-7.5.9-1.5 1.4-3.3 1.5-5.1 0-1.5-.5-2.9-1.6-3.9s-2.5-1.6-4-1.5c-1.6 0-3.1.6-4.2 1.9-1.1 1.5-1.7 3.3-1.7 5.1z"/>
        <path id="Path_12135_1_" class="st0" d="M0 47h6.7v1.1H1.2v3.7h5.6V53H1.2v4.7h5.6v1.1H0V47z"/>
        <path id="Path_12136_1_" class="st0" d="M8.3 47h1.3l3.9 9.1 4-9.1h1.3l-5.1 11.8h-.3L8.3 47z"/>
        <path id="Path_12137_1_" class="st0" d="M20.4 47h6.7v1.1h-5.6v3.7h5.6V53h-5.6v4.7h5.6v1.1h-6.7V47z"/>
        <path id="Path_12138_1_" class="st0" d="M29.3 58.9V47.1h.2l7.8 9v-9h1.2v11.8h-.3L30.4 50v8.9h-1.1z"/>
        <path id="Path_12139_1_" class="st0" d="M40.4 48.2V47h6.5v1.1h-2.6v10.6h-1.2V48.2h-2.7z"/>
        <path id="Path_12140_1_" class="st0" d="M53.4 49.4c-.6-.8-1.2-1.4-2.2-1.4-.8-.1-1.5.6-1.6 1.4v.1c0 .7.4 1.4 1.1 1.8 2.2 1.6 3.8 2.8 3.8 4.7 0 1.8-1.5 3.2-3.3 3.2-1.6 0-2.7-.9-3.6-2.5l1-.6c.7 1.3 1.6 2 2.5 2 1.2.1 2.1-.8 2.2-2 0-1.3-1.2-2-3.9-4.2-.6-.6-1-1.4-1-2.3 0-1.5 1.2-2.8 2.7-2.8h.1c1.3.1 2.5.8 3.1 1.9l-.9.7z"/>
  </g>
</svg>
