<svg xmlns="http://www.w3.org/2000/svg" width="103.364" height="44.209" viewBox="0 0 103.364 44.209"><defs><style>.a,.b{fill:#101010;}.b{fill-rule:evenodd;}</style></defs><g transform="translate(-539 -3953.9)"><g transform="translate(539 3986.915)"><path class="a" d="M50.2,433.123l.906-.544q.956,1.761,2.21,1.76a2.118,2.118,0,0,0,1.007-.249,1.772,1.772,0,0,0,.717-.67,1.734,1.734,0,0,0,.246-.892,1.8,1.8,0,0,0-.362-1.05,8.69,8.69,0,0,0-1.825-1.71,9.287,9.287,0,0,1-1.659-1.456,2.66,2.66,0,0,1-.565-1.631,2.47,2.47,0,0,1,.333-1.267,2.37,2.37,0,0,1,.939-.9,2.7,2.7,0,0,1,1.315-.33,2.8,2.8,0,0,1,1.409.373,4.838,4.838,0,0,1,1.388,1.372l-.869.66a4.175,4.175,0,0,0-1.025-1.05,1.758,1.758,0,0,0-.924-.254,1.464,1.464,0,0,0-1.054.392,1.277,1.277,0,0,0-.41.963,1.651,1.651,0,0,0,.145.674,2.47,2.47,0,0,0,.529.709q.21.2,1.377,1.066a7.759,7.759,0,0,1,1.9,1.819,2.935,2.935,0,0,1,.514,1.6,2.717,2.717,0,0,1-.881,2.015,2.962,2.962,0,0,1-2.141.855,3.142,3.142,0,0,1-1.761-.518A4.74,4.74,0,0,1,50.2,433.123Z" transform="translate(-50.197 -424.182)"/><path class="a" d="M114.348,426.428l-.841.644a4.594,4.594,0,0,0-1.67-1.372,4.877,4.877,0,0,0-2.141-.469,4.724,4.724,0,0,0-2.362.613,4.39,4.39,0,0,0-1.685,1.644,4.555,4.555,0,0,0-.6,2.323,4.359,4.359,0,0,0,1.337,3.253,4.634,4.634,0,0,0,3.372,1.3,4.745,4.745,0,0,0,3.746-1.753l.841.637a5.368,5.368,0,0,1-1.989,1.569,6.231,6.231,0,0,1-2.663.555,5.539,5.539,0,0,1-4.413-1.862,5.618,5.618,0,0,1-1.355-3.8,5.281,5.281,0,0,1,1.641-3.939,5.657,5.657,0,0,1,4.112-1.6,6.038,6.038,0,0,1,2.695.59A5.242,5.242,0,0,1,114.348,426.428Z" transform="translate(-96.524 -424.182)"/><path class="a" d="M190.628,426.128h1.065v4.47h5.427v-4.47h1.065v10.657H197.12v-5.143h-5.427v5.143h-1.065Z" transform="translate(-171.274 -425.86)"/><path class="a" d="M259.974,426.128h1.065v9.63h4.1v1.028h-5.166Z" transform="translate(-231.063 -425.86)"/><path class="a" d="M307.53,424.182a5.53,5.53,0,0,1,4.053,1.616,5.6,5.6,0,0,1-3.966,9.579,5.455,5.455,0,0,1-4-1.623,5.335,5.335,0,0,1-1.631-3.926,5.677,5.677,0,0,1,.743-2.848,5.49,5.49,0,0,1,4.8-2.8Zm.047,1.035a4.39,4.39,0,0,0-2.242.617,4.442,4.442,0,0,0-1.655,1.66,4.63,4.63,0,0,0-.595,2.328,4.484,4.484,0,0,0,4.492,4.517,4.557,4.557,0,0,0,2.3-.6,4.305,4.305,0,0,0,1.647-1.645,4.622,4.622,0,0,0,.592-2.321,4.507,4.507,0,0,0-.592-2.3,4.412,4.412,0,0,0-1.665-1.642A4.507,4.507,0,0,0,307.576,425.217Z" transform="translate(-267.282 -424.182)"/><path class="a" d="M386.681,433.123l.906-.544q.956,1.761,2.21,1.76a2.113,2.113,0,0,0,1.006-.249,1.77,1.77,0,0,0,.718-.67,1.736,1.736,0,0,0,.246-.892,1.8,1.8,0,0,0-.362-1.05,8.671,8.671,0,0,0-1.826-1.71,9.321,9.321,0,0,1-1.659-1.456,2.664,2.664,0,0,1-.566-1.631,2.465,2.465,0,0,1,.334-1.267,2.372,2.372,0,0,1,.938-.9,2.707,2.707,0,0,1,1.315-.33,2.8,2.8,0,0,1,1.409.373,4.831,4.831,0,0,1,1.387,1.372l-.869.66a4.193,4.193,0,0,0-1.025-1.05,1.759,1.759,0,0,0-.924-.254,1.465,1.465,0,0,0-1.054.392,1.279,1.279,0,0,0-.409.963,1.651,1.651,0,0,0,.145.674,2.449,2.449,0,0,0,.529.709q.209.2,1.376,1.066a7.734,7.734,0,0,1,1.9,1.819,2.923,2.923,0,0,1,.514,1.6,2.717,2.717,0,0,1-.881,2.015,2.96,2.96,0,0,1-2.14.855,3.142,3.142,0,0,1-1.761-.518A4.751,4.751,0,0,1,386.681,433.123Z" transform="translate(-340.307 -424.182)"/><path class="a" d="M436,433.123l.906-.544q.957,1.761,2.21,1.76a2.117,2.117,0,0,0,1.007-.249,1.772,1.772,0,0,0,.717-.67,1.734,1.734,0,0,0,.246-.892,1.809,1.809,0,0,0-.362-1.05,8.666,8.666,0,0,0-1.826-1.71,9.35,9.35,0,0,1-1.659-1.456,2.667,2.667,0,0,1-.564-1.631,2.471,2.471,0,0,1,.333-1.267,2.373,2.373,0,0,1,.938-.9,2.7,2.7,0,0,1,1.315-.33,2.8,2.8,0,0,1,1.409.373,4.832,4.832,0,0,1,1.387,1.372l-.869.66a4.17,4.17,0,0,0-1.025-1.05,1.759,1.759,0,0,0-.924-.254,1.465,1.465,0,0,0-1.054.392,1.279,1.279,0,0,0-.41.963,1.66,1.66,0,0,0,.145.674,2.481,2.481,0,0,0,.529.709q.21.2,1.377,1.066a7.757,7.757,0,0,1,1.9,1.819,2.93,2.93,0,0,1,.514,1.6,2.719,2.719,0,0,1-.88,2.015,2.963,2.963,0,0,1-2.141.855,3.142,3.142,0,0,1-1.761-.518A4.746,4.746,0,0,1,436,433.123Z" transform="translate(-382.828 -424.182)"/><path class="a" d="M493.309,426.128H494.4v4l4.261-4h1.43l-5.118,4.782,5.517,5.875h-1.419l-4.671-4.964v4.964h-1.087Z" transform="translate(-432.24 -425.86)"/><path class="a" d="M552.671,426.128h6.107v1.044h-5.043v3.34h5v1.044h-5v4.188h5v1.043h-6.064Z" transform="translate(-483.421 -425.86)"/><path class="a" d="M606.03,426.128H607.1v9.63h4.1v1.028H606.03Z" transform="translate(-529.426 -425.86)"/><path class="a" d="M651.461,426.128h1.065v9.63h4.1v1.028h-5.166Z" transform="translate(-568.596 -425.86)"/><path class="a" d="M696.943,426.128h6.108v1.044h-5.044v3.34h5v1.044h-5v4.188h5v1.043h-6.064Z" transform="translate(-607.81 -425.86)"/><path class="a" d="M750.721,426.128h2.124a12.882,12.882,0,0,1,2.4.145,2.748,2.748,0,0,1,1.544.932,2.662,2.662,0,0,1,.594,1.759,2.846,2.846,0,0,1-.409,1.531,2.556,2.556,0,0,1-1.171,1,5.366,5.366,0,0,1-2.1.345l3.832,4.948h-1.318l-3.834-4.948h-.6v4.948h-1.066Zm1.066,1.044v3.622l1.836.015a4.568,4.568,0,0,0,1.578-.2,1.639,1.639,0,0,0,.8-.649,1.8,1.8,0,0,0,.287-1,1.724,1.724,0,0,0-.291-.974,1.623,1.623,0,0,0-.762-.628,4.659,4.659,0,0,0-1.567-.188Z" transform="translate(-654.176 -425.86)"/></g><path class="b" d="M447.893,191.581c-.107-.206-.509-1.093-.675-1.56-.393-.771-.626-.9-.927-1.028s-.464,0-.9-.216a1.307,1.307,0,0,1-.77-1.353,3.835,3.835,0,0,0-.026-1.433,1.23,1.23,0,0,0-1.206-.941,1.572,1.572,0,0,0-1.632,1.167c-.11.254-.06.682.093.735a1.918,1.918,0,0,1,.32.471,2.362,2.362,0,0,1,.051.577c.012.1.226.122.289.126.053.033.006.119.087.1.01.026.029.085.151.1-.041.231.056.164.08.183.081.064.168.3.344.309s.5-.267.5-.267a.752.752,0,0,1,.151.49.554.554,0,0,1-.286.115,1.024,1.024,0,0,1-.28.01.818.818,0,0,0-.552.44,3.168,3.168,0,0,0-.188.992,1.588,1.588,0,0,1-.327.553c-.105.134-.175.1-.138.464s.4.715.465.979a2.148,2.148,0,0,1-.139,1.181c-.08.155-.389.854-.464,1.08s-.378.867-.49,1.106a2.117,2.117,0,0,1-.339.5,9.045,9.045,0,0,1-.879.539,5.651,5.651,0,1,1-.364.528c.451-.767,1.406-.148,1.444-.087.012-.039.119-.507.175-.7a5.624,5.624,0,0,1,.339-.452.532.532,0,0,1,.326-.126,12.16,12.16,0,0,0,.051,1.457c.074.716.226,2.173.239,2.75s-.152,3.367-.152,3.367a1.3,1.3,0,0,0,.421.22s.044-.022.05.136a.455.455,0,0,0,.242.243,5.931,5.931,0,0,0,1.775.155,6.862,6.862,0,0,0,1.23-.428c-.011-.038-.163-2.914-.175-3.19a9.76,9.76,0,0,1,.075-1.621c.089-.565.352-.767.515-1.495a2.144,2.144,0,0,0-.423-1.645c-.326-.465-1.235-1.6-.909-2.4a2.056,2.056,0,0,1,.528-1.193,10.789,10.789,0,0,0,.754-1.281,6.244,6.244,0,0,0,.628.8c.095-.258.584-.811.911-.464Z" transform="translate(152.985 3768.911)"/><path class="b" d="M359.434,224.634a1.368,1.368,0,0,1,.013-.866c.1-.175-.239,0-.126-.276s.409-.594,1.105-.465a1.955,1.955,0,0,1,.679.2.937.937,0,0,1,1.13-.477c.151-.026.332-.263.791-.026a.638.638,0,0,1,.352.616c0,.088.6.126.867.327a1.063,1.063,0,0,1,.113,1.608,1.25,1.25,0,0,1-.088,1.544.542.542,0,0,0-.289-.125,6.424,6.424,0,0,0-.025.942l-.416-.05a4.073,4.073,0,0,1-1.091,1.984c-1.03,1.219-.867,1.658-.93,1.82a.9.9,0,0,0,.075.579,25.141,25.141,0,0,1,.943,2.411c.125.528.164.654.164.654s.352.476.426.628.151.238.239.062a2.662,2.662,0,0,0,.264-.64c-.013-.088-.791-.025-.377-1.042a5.919,5.919,0,0,1-.251-2.4,5.471,5.471,0,0,1,.853-2.487c.415-.465,1.081-1.218,1.181-1.357a3.225,3.225,0,0,0,.577-1.356,2.74,2.74,0,0,0,.025-.98c-.063-.113-.552-.665-.54-1.118a1.24,1.24,0,0,1,.075-.54l.164.126a3.616,3.616,0,0,1,.126-1.381,2.7,2.7,0,0,0,.163.615c.063.1.151-.326.428-.44a1.783,1.783,0,0,1-.2,1.156c.037.051.439.176.124.528a.431.431,0,0,0-.124.377c.012.087.1.15.2.012s.138-.113.15.062a1.574,1.574,0,0,1-.213,1.005c-.076.3-.118.716-.251,1.267a3.362,3.362,0,0,1-.765,1.37,6.128,6.128,0,0,0-1.207,1.908c.264.039.54,0,.553.315-.313.088-.728.238-.791.664.365-.011.6-.149.829.152a1.073,1.073,0,0,0-.44.628c-.314.289-.465.64-.364.866.239-.126.629-.5.854-.062-.225.251-.6.415-.628.841a.7.7,0,0,1,.439.64.608.608,0,0,1-.264.5,1.362,1.362,0,0,1-.189,1.169.725.725,0,0,1-1.13.164,2.948,2.948,0,0,0-.729,1.192,1.709,1.709,0,0,0,.39,1.193c.263.264.54.427.6.616a6.682,6.682,0,0,1,.313,1.469,5.2,5.2,0,0,1-.024,1.294,4.528,4.528,0,0,0-.188,1.093c.05.038.189-.04.414.038a.328.328,0,0,1,.139.552c-.139-.051-.215-.115-.377.038-.2.188-.05.313-.138.439a.447.447,0,0,1-.553.1c-.176-.125-.164-.527-.126-.74l-.427.238s.113.439-.125.5a1.586,1.586,0,0,1-.44.051.279.279,0,0,0-.263-.214c-.189-.013-.277.226-.277.226s-.4-.037-.1-.691c-.05-.023-.414.151-.6.1-.1-.051-.276-.414-.565-.064-.126-.024-.276-.087-.226-.238a1.506,1.506,0,0,1,.138-.289s-.063-.438.226-.5a.362.362,0,0,1,.4.127,1.246,1.246,0,0,1,.6-.176c.24-.076.255-.212.616-.288.176-.039.118-.1.176-.24a2.851,2.851,0,0,0-.251-1.444,2.9,2.9,0,0,0-.578-.88c-.151-.075-.728-.364-.8-.4a1.257,1.257,0,0,0-1.131.689,2.272,2.272,0,0,1-1.13-.238,5.713,5.713,0,0,1-.615-.428,3.426,3.426,0,0,1-.541-.326,1.446,1.446,0,0,1-.025-.377,1.121,1.121,0,0,1-.452.225c-.037.139-.062.392-.352.392-.113-.089.046-.286-.189-.365s-.3,0-.3,0a.684.684,0,0,1-.05-.378.6.6,0,0,1,.477-.325c.051-.2-.138-.289-.238-.328s-.259.194-.353.265c-.15.112-.289-.1-.3-.24a.865.865,0,0,1,0-.213s.389-.126.088-.439c-.05-.088.188-.265.3-.177s.314.177.352.014a1.668,1.668,0,0,0,.037-.327s-.49.062-.478-.19a2.25,2.25,0,0,1,.126-.364s.628.139.464-.4c.013-.151.378-.126.478-.025a.419.419,0,0,1,.025.453.989.989,0,0,1,.29.727c-.05.276.053.721.2.792a2.513,2.513,0,0,0,1.231.238,3.184,3.184,0,0,0,1.017-.213,2.875,2.875,0,0,1-.629-.49c-.151-.2-.615-.728-.44-1.294a2.506,2.506,0,0,1,.866-1.268,3.1,3.1,0,0,1,1.244-.4c.377.012.162-1.08.075-1.194a6.164,6.164,0,0,0-1-1.331,2.748,2.748,0,0,1-2.839-.691c-.075.251-.062.767-.7.729-.1-.265-.276-.352-.44-.138a.507.507,0,0,1-.013-.7c.151-.064.465-.164.465-.164s-.037-.352-.251-.24-.439.177-.452-.113.013-.163.013-.163.578-.264.063-.615c-.026-.126.025-.3.225-.276s.528.364.528.364l-.063-.364s0-.113-.251-.213a.474.474,0,0,1-.188-.691c.175.025.339.15.364-.277a.35.35,0,0,1,.489.34.736.736,0,0,0,.089.577,1.484,1.484,0,0,0,2.06.479,1.876,1.876,0,0,1-1.419-1.107c-.238-.7-.139-.652-.139-.652s-.539-.528-.439-.968c-.276-.012-.54-.1-.591-.362-.151.024-.477,0-.553-.127.227-.314.026-.566-.263-.566-.113-.213.151-.615.678-.463.139-.189.026-.189-.1-.239-.363-.025-.188-.565-.062-.667.15.126.514.088.464-.313.24,0,.465.188.39.351s-.15.5-.037.566c.125-.025.339-.264.314-.4s-.327-.5.188-.564c.026.1.427.262.566-.026s.452.338.188.514-.595.577-.477.905a2.275,2.275,0,0,0,.828,1.093,2.679,2.679,0,0,0,2.035.477c.892-.213,1.13-.666,1.155-.729s-.439-.126-.564-.139-.453-.063,0-.25a2.383,2.383,0,0,1,1.293.074.649.649,0,0,0,.251-.2,1.369,1.369,0,0,0-1.18-.338,3.564,3.564,0,0,0-1.131.54,1.349,1.349,0,0,1-1.256-.163,1.634,1.634,0,0,1-.4-1.155c.024-.139.164-.7.452-.842-.013.063-.05.389-.05.389l.226-.037a3.934,3.934,0,0,0-.113.8c.038.126.151.616.49.691a1.172,1.172,0,0,0,.691-.013c.113-.05-.038-.113-.038-.113a2.506,2.506,0,0,1,1.205-.44c.427-.024,1.156.252,1.27.566.125-.013.54-.037.54-.037A3.088,3.088,0,0,1,362,225.3c-.025-.088-.175-.527-.175-.527a3.176,3.176,0,0,1-.842.175c-.188-.038-.163-.2-.528-.175s-.376-.314-.765-.14c-.2.064-.251,0-.251,0Z" transform="translate(226.376 3736.577)"/><path class="b" d="M403.562,229.519a1.685,1.685,0,0,1,1.21.442c-.078.106-.273.041-.273.041a.621.621,0,0,1-.578.138c-.238-.089-.335-.176-.358-.621Z" transform="translate(184.138 3730.568)"/><path class="b" d="M390.813,375.164a.237.237,0,0,1,.264-.2c.069.026.294.108.264.271a1.3,1.3,0,0,0,.037.584c.05.061-.577-.07-.566-.654Z" transform="translate(195.13 3605.172)"/><path class="b" d="M358.227,341.4c.083-.252.619.1.427.292a.614.614,0,0,0-.159.578c.042.1-.518-.184-.268-.87Z" transform="translate(223.281 3634.185)"/><path class="b" d="M353.221,329.466a.46.46,0,0,0,.334-.059c.06-.042.324.417-.068.469-.224-.084-.308-.418-.266-.41Z" transform="translate(227.551 3644.449)"/><path class="b" d="M354.68,318.58c-.012-.176.5-.554.93-.319a.3.3,0,0,1-.059.419c-.033.016-.314.1-.37.041s-.132-.216-.5-.141Z" transform="translate(226.284 3654.121)"/><path class="b" d="M354.375,263c.294-.134.553-.218.821.033.126.3-.293.4-.344.352s.059-.243-.477-.385Z" transform="translate(226.546 3701.811)"/><path class="b" d="M352.983,275.612a.559.559,0,0,1,.3-.72c.284-.05.254.314.234.377a.318.318,0,0,1-.26.225s-.1-.143-.276.117Z" transform="translate(227.78 3691.453)"/><path class="b" d="M356.919,288.7a.2.2,0,0,1,.293-.125c.084.05.158.15.109.243s-.176.477.008.586-.519.008-.41-.7Z" transform="translate(224.363 3679.671)"/><path class="b" d="M353.857,247.914a.59.59,0,0,1-.217-.619.478.478,0,0,1,.142-.327c.072-.084.511-.017.286.528-.085.075-.235.092-.21.418Z" transform="translate(227.191 3715.55)"/><path class="b" d="M355.856,232.865a.482.482,0,0,0-.444-.578c-.018-.083.692-.359.861.193.143.46-.343.377-.418.386Z" transform="translate(225.652 3728.304)"/><path class="b" d="M367.3,230.168a.708.708,0,0,0-.159-.686.615.615,0,0,1,.636.628c-.1.318-.326.234-.477.058Z" transform="translate(215.54 3730.6)"/><path class="b" d="M391.619,237.833a.627.627,0,0,1-.059-.544c.083-.142.393-.043.461.017s-.4.386-.4.527Z" transform="translate(194.52 3723.931)"/><path class="b" d="M397.258,238.993a1.192,1.192,0,0,1-.169-.43c0-.108.417.008.47.109s-.118.176-.06.327c-.025.042-.241-.005-.241-.005Z" transform="translate(189.719 3722.808)"/><path class="b" d="M440.586,273.267a.928.928,0,1,0,.927.928.927.927,0,0,0-.927-.928Zm-.007,1.607a.688.688,0,1,1,.688-.688.689.689,0,0,1-.688.688Z" transform="translate(153.017 3692.849)"/><path class="b" d="M440.2,274.528a1.029,1.029,0,1,0-1.256-.548,1.03,1.03,0,0,0,1.256.548Zm.561-.973a.876.876,0,1,1-.877-.876.877.877,0,0,1,.877.876Z" transform="translate(153.715 3693.492)"/><path class="b" d="M441.512,274.408a.773.773,0,1,0,.774.773.774.774,0,0,0-.774-.773Zm0,1.385a.614.614,0,1,1,.615-.614.613.613,0,0,1-.615.614Z" transform="translate(152.085 3691.865)"/><path class="b" d="M443.331,270.688c.035.009.06,0,.1.019.077.041.136.012.245.041.378.172.218-.1.218-.1l.084-.267.057-.175.139.088a1.01,1.01,0,0,0,.207-.515c-.025-.2-.587-.335-.587-.335l-.5.486a.73.73,0,0,0-.147.22c-.035.094.093.025.093.025s-.092.467.095.519Z" transform="translate(150.017 3696.15)"/><path class="b" d="M418.464,230.838c.238-.025,1.268.276.9,1.143-.025-.64-.352-.817-.653-.88a1.058,1.058,0,0,1-.15.376,1.348,1.348,0,0,0-.1-.64Z" transform="translate(171.29 3729.432)"/><path class="b" d="M404.452,229.466a1.952,1.952,0,0,0-1.257-.438c-.1,1.042.893.791,1,.6.2.012.424-.022.252-.164Zm-.936-.116a.274.274,0,0,0-.064.235c-.075-.028-.166-.185-.154-.42a1.329,1.329,0,0,1,.334.048.455.455,0,0,0,.019.31.22.22,0,0,1-.135-.173Zm.65.164a.429.429,0,0,1-.286.144.145.145,0,0,0-.11-.186.225.225,0,0,1-.067-.244,2.237,2.237,0,0,1,.631.292.413.413,0,0,1-.168-.006Z" transform="translate(184.46 3730.991)"/><path class="b" d="M364.39,222.845c-.067.184-.206.4-.233.3a.287.287,0,0,1,.016-.235c.5-.435.082-.611.014-.7a1.634,1.634,0,0,0,.12-1.264.9.9,0,0,0-.418.452,1.978,1.978,0,0,1-.083-.737,1.789,1.789,0,0,0-.285,1.508,1.071,1.071,0,0,1-.151-.2,1.75,1.75,0,0,0,.452,1.926,3.873,3.873,0,0,1-.452,1.977c-.335.585-1.139,1.305-1.474,1.793a6.137,6.137,0,0,0-.787,2.879,6.345,6.345,0,0,0,.3,1.859.685.685,0,0,0,.351,1.106,1.284,1.284,0,0,1-.2.518c-.041.063-.075.138-.127-.012a2.756,2.756,0,0,0-.408-.641,9.963,9.963,0,0,0-.586-1.841c-.107-.306-.444-1.134-.536-1.29-.151-.251-.081-.38,0-.687a5.173,5.173,0,0,1,.853-1.59,4.724,4.724,0,0,0,1.089-1.909c.167.032.251-.017.435.1a2.873,2.873,0,0,0-.033-.989c.1.067.167,0,.251.168a1.266,1.266,0,0,0,.167-1.658,1.177,1.177,0,0,0-.971-1.993.761.761,0,0,0-.519-.724.716.716,0,0,0-.72.1,1.2,1.2,0,0,0-.653.01,1.06,1.06,0,0,0-.486.452,2.634,2.634,0,0,0-.887-.2c-.519-.016-.787.077-.942.436-.081.188-.063.436.1.469-.15.435-.136.871.118.887h.15a.534.534,0,0,0,.168.554,1.141,1.141,0,0,1,.386-.5.319.319,0,0,1,.183.051.536.536,0,0,0,.168.351,2.652,2.652,0,0,0-1.223.452c.083.084.067.117.067.117-1.105.167-1.256-.771-.888-1.609-.134.017-.195.1-.285.085a1.281,1.281,0,0,1,.251-.521,1.4,1.4,0,0,0-.254,2.354c.709.493,1.223.126,1.9-.276a1.529,1.529,0,0,1,1.507.067c-.067.066-.05.117-.168.151a2.024,2.024,0,0,0-1.406.017c-.253.133-.171.3-.016.318a2.649,2.649,0,0,1,.552.1,1.939,1.939,0,0,1-.637.453,2.716,2.716,0,0,1-1.44.15,2.686,2.686,0,0,1-1.607-1.272c-.1-.286-.259-.562.234-.92.541-.394.167-.855-.118-.8a.652.652,0,0,0-.887-.57.493.493,0,0,1,.3.62c-.536.118-.352.521-.252.653a.351.351,0,0,1-.194.263c-.034-.061-.062-.109-.024-.178.335-.587-.237-.641-.337-.675a.629.629,0,0,0-1.069-.112c.133.017.619.151.536.469-.369.519-.1.72.067.753s.133.1.083.117c-.273-.081-.778-.037-.71.576a.722.722,0,0,0,.241,1.05c-.034-.252-.008-.416.067-.453a.65.65,0,0,0,.553.134c.2.486.386.268.553.352.022.661.151.453.469.955a1.787,1.787,0,0,0,1.34,1.725,1.474,1.474,0,0,1-1.859-.8c.117-.419.056-.79-.519-.738-.452-.269-.82-.083-.9.134.208-.026.472.087.485.218-.3.536.017.786.335.82a.2.2,0,0,1,.1.268c-.452-.4-.637-.2-.737.117-.585.252-.279,1.014-.2.907-.016-.2.134-.27.167-.2-.05.687.569.268.569.268s.134.016.1.134a.562.562,0,0,0-.418.954c-.134.67.412.883.586.736a.389.389,0,0,1-.1-.552c.653,0,.737-.4.754-.688a2.556,2.556,0,0,0,2.73.671,2.721,2.721,0,0,1,1.039,1.439c.133.385.167.687-.085.888a2.42,2.42,0,0,0-1.666.812,1.633,1.633,0,0,0,.494,2.688c-.183.2-1.155.167-1.356.151s-.854-.168-.837-.671a1.258,1.258,0,0,0-.269-1.021c.135-.368-.066-.72-.653-.519a.72.72,0,0,0-.988.486c.1-.051.486-.084.486.067-.217.535.067.67.368.587.05.15-.05.385-.185.251a.307.307,0,0,0-.5.117.742.742,0,0,1-.376.031.8.8,0,0,0,.276.489c.051.869.536.485.737.251a.206.206,0,0,1,.184.184c-.351.067-.62.252-.435.787-.219.855.335,1,.452.972-.134-.318-.067-.47.034-.536a.428.428,0,0,0,.468-.418.587.587,0,0,0,.319-.135c.034.42.217.536.57.6a2.263,2.263,0,0,0,1.959.7c.016-.5.559-.67.977-.7a2.123,2.123,0,0,0,.795.419,3.044,3.044,0,0,1,.739,2.377.774.774,0,0,0-.6.285c-.37-.083-.5.136-.67.169-.369-.32-.771,0-.7.452-.218.351-.151.5.117.653.116.63.55.7.7.621a.684.684,0,0,1-.05-.587.71.71,0,0,0,.44-.093c-.2.432-.017.7.222.725a.737.737,0,0,0,.829.356.526.526,0,0,1-.243-.405c.5.05.712-.189.6-.578a.911.911,0,0,0,.247-.139c-.193.868.716.889.9.453a.878.878,0,0,1,.133.586.781.781,0,0,0,.339-.97c.2-.361.129-.755-.54-.721a1.635,1.635,0,0,1,.151-.9,5.609,5.609,0,0,0-.318-3.015c-.871-.686-1.138-1.541-.769-2.11a3.413,3.413,0,0,1,.488-.635.714.714,0,0,0,1.024-.006,1.466,1.466,0,0,0,.378-1.436.7.7,0,0,0-.149-1.21,1.215,1.215,0,0,1,.635-.766c-.235-.469-.7-.3-.938-.067a.837.837,0,0,1,.436-.7c.033-.452.244-.5.518-.636a.87.87,0,0,0-.938-.268c.185-.4.4-.453.82-.453-.033-.553-.385-.5-.569-.5a11.083,11.083,0,0,1,1.491-2.278,4.591,4.591,0,0,0,.686-2.125,1.389,1.389,0,0,0,.117-1.492Zm-2.883-1.252a3.812,3.812,0,0,0-.855-.453.6.6,0,0,1,.855.453Zm-3.512,1.9a.384.384,0,0,1,.019-.434.3.3,0,0,1,.292.02.773.773,0,0,0-.311.413Zm.747-.283a.478.478,0,0,1,.333.1.286.286,0,0,0-.053.258c-.067-.009-.107-.009-.141-.01a.4.4,0,0,1-.139-.345Zm-.194.726a8.654,8.654,0,0,0-.961.484,1.127,1.127,0,0,1-.823.031,1.292,1.292,0,0,1-.428-2c-.028.076-.041.263.015.307s.227-.074.167,0a1.2,1.2,0,0,0,.119,1.241.979.979,0,0,0,1.1.169.181.181,0,0,0-.044-.132,3.08,3.08,0,0,1,1.141-.369,1.653,1.653,0,0,1,1.189.431c-.058.027-.058.036-.109.063a1.58,1.58,0,0,0-1.367-.233Zm.635-.555a1.5,1.5,0,0,0,.8-.127,1.4,1.4,0,0,0,.5.83.645.645,0,0,0-.335.009,1.33,1.33,0,0,0-.988-.511.177.177,0,0,1,.026-.2Zm-4.547-1.439a.6.6,0,0,1,.462.59.205.205,0,0,1-.328.012.517.517,0,0,0-.134-.6Zm-1.661.427a.544.544,0,0,1,.751.28c.069.238-.182.3-.289.263a.49.49,0,0,0-.462-.543Zm.1,2.411c-.113.057-.189.088-.214.38a.671.671,0,0,1,.01-.782c.263-.1.26.286.2.4Zm-.2,1.835a.6.6,0,0,1,.653.065.184.184,0,0,1-.22.245c.009-.093-.126-.3-.434-.311Zm-.242,2.162a.486.486,0,0,1,.345-.558c.217.06.123.424-.047.465a.191.191,0,0,0-.3.093Zm.86,1.476a.555.555,0,0,0-.018.6c-.132-.035-.37-.223-.273-.679.144-.19.327-.019.292.079Zm2.757,3.678a2.178,2.178,0,0,1,1.6-1.055,3.1,3.1,0,0,0-.93,3.191,1.573,1.573,0,0,1-.669-2.136Zm-3.356.555a.643.643,0,0,1,.822-.233c.145.3-.175.377-.339.333a.43.43,0,0,0-.483-.1Zm0,1.569a.446.446,0,0,1-.22-.275.425.425,0,0,0,.276-.044.172.172,0,0,1-.056.32Zm.82,1.618a.468.468,0,0,0-.141.518c-.24-.135-.251-.577-.152-.792.233-.15.381.221.293.275Zm3.2.713a2.311,2.311,0,0,1-1.658-.67c-.145-.093-.5-.078-.536-.478a.419.419,0,0,1,.143-.419.588.588,0,0,0-.335.243.48.48,0,0,1-.4.154c-.032.29-.093.413-.271.409.044-.228-.216-.484-.435-.362-.13-.14-.054-.57.442-.57a.444.444,0,0,0-.345-.479c-.162.122-.549.651-.565-.04a.309.309,0,0,0,.084-.544c.076-.118.235-.1.335.033a.213.213,0,0,0,.293-.009.718.718,0,0,0,.058-.569c-.134-.016-.595.193-.369-.376.177.017.629.058.511-.478.285-.091.517.113.36.427-.05.1.118.143.193.336a.8.8,0,0,1,.084.351c-.026.653.025.947.829,1.1a2.843,2.843,0,0,0,1.64-.134,2.977,2.977,0,0,0,.913,1.383c-.386.05-.9.275-.972.686Zm.951,3.79c.062-.271.357-.161.389.008a.768.768,0,0,0,.028.553.71.71,0,0,1-.417-.561Zm1.293.61c0-.256.381-.205.369-.068a.5.5,0,0,0,.112.414c-.1-.02-.427-.142-.482-.346Zm2.475.125c0-.162-.067-.449-.23-.515-.084-.151.166-.359.321-.209a.618.618,0,0,1-.092.724Zm2.506-18.708a5.069,5.069,0,0,1-.471,1.833,7.939,7.939,0,0,1-.984,1.363,3.224,3.224,0,0,0-.8,1.486c.167-.013.553-.041.563.172a.849.849,0,0,0-.819.842c.411-.072.651-.1.835.029a.629.629,0,0,0-.385.569.889.889,0,0,0-.334,1.055c.469-.351.653-.369.752-.216a1.075,1.075,0,0,0-.569.869c.521.269.544.712.285.971-.151.152-.124.014-.083.193a1.293,1.293,0,0,1-.572,1.366c-.418.2-.82-.3-.971-.8a1.634,1.634,0,0,0,.132.7,5.239,5.239,0,0,0-.574.828,1.691,1.691,0,0,0,.677,2,.6.6,0,0,1,.3.452,4.2,4.2,0,0,1,.218,1.121,4.151,4.151,0,0,1-.05,1.542,2.347,2.347,0,0,0-.151,1.021c.151.05.82-.084.6.4a.388.388,0,0,0-.52.436c.017.334-.707.342-.586-.2a4.039,4.039,0,0,0,.1-.687,1.245,1.245,0,0,1-.669.585c.146.549-.176.542-.415.511a.335.335,0,0,0-.591.009c-.167.116-.235-.554.269-.822a1.176,1.176,0,0,0-.6.185.413.413,0,0,1-.384.05c-.016-.117-.352-.335-.536-.083-.167.1-.268-.151-.05-.318-.033-.52.234-.653.553-.352a.964.964,0,0,1,.5-.2,1.635,1.635,0,0,0-.017.584c.067-.183.183-.884.837-.886.14,0,.148-.126.168-.234a3.256,3.256,0,0,0-.687-2.311.7.7,0,0,0-.4-.251,2.752,2.752,0,0,1-1.625-2.395,2.992,2.992,0,0,1,.6-2.311c.385-.536.687-.536.7-.888a2.974,2.974,0,0,0-1.089-2.176,3.184,3.184,0,0,0,1.123-.937,4.941,4.941,0,0,1-1.709.9,2.454,2.454,0,0,1-2.394-.8c-.154-.15-.157-.068-.151.033.034.6-.251.738-.57.738a.254.254,0,0,0-.418-.151c-.167-.067-.268-.653.469-.67.132.009-.027-.286-.1-.352s-.217-.117-.284-.034-.335.2-.319-.167c.285-.034.421-.62.095-.733.016-.2.251-.213.542.181a1.478,1.478,0,0,0,1.272.686c-.326-.233-.986-.282-1.072-.955-.05-.388-.1-.368-.3-.4a.33.33,0,0,1-.217-.519c.2.017.4-.068.4-.3.259-.058.419.1.285.538-.035.113-.022.086.067.25a1.622,1.622,0,0,0,1.909.788,1.759,1.759,0,0,0,1.307-1.593c-.151.5-.723,1.3-1.223,1.173a1.713,1.713,0,0,1-1.222-1.391c-.034-.2,0-.235-.134-.4a.867.867,0,0,1-.335-.737c.018-.217-.051-.185-.2-.168a.353.353,0,0,1-.386-.234.328.328,0,0,0,.134-.3c-.218.168-.452.335-.653.151.106-.422-.118-.692-.325-.6-.062-.108.124-.452.442-.317a.484.484,0,0,1,.2.117c.1-.185.217-.445-.032-.5-.217-.051-.385-.134-.117-.486.2.018.469.018.486-.335.225,0,.343.161.185.4a.4.4,0,0,0-.009.371.845.845,0,0,0,.394.451.764.764,0,0,1-.134-.369c.019-.092.114-.135.172-.242s.107-.26.029-.345c-.114-.12-.1-.268.134-.351.1.083.234.284.569.016.135-.147.332.218.185.318a2.365,2.365,0,0,0-.452.435.761.761,0,0,0-.067.7,2.686,2.686,0,0,0,1.909,1.506,1.822,1.822,0,0,0-.971,1.909,1.951,1.951,0,0,1,1.49-1.858,2.054,2.054,0,0,0,1.742-.839.7.7,0,0,0-.573-.219c-.235,0-.314-.062-.032-.127a1.75,1.75,0,0,1,1.141.082c.192.113.351-.255.486-.289a1.516,1.516,0,0,1,.5-.05c.138,0,.2-.156.05-.234a1.17,1.17,0,0,1-.486-.77c0-.235-.134-.137-.234-.1a1.409,1.409,0,0,1-.7.119.922.922,0,0,0-.536-.168.774.774,0,0,0-.837-.117c-.151.052-.151,0-.168-.1a1.209,1.209,0,0,1,.1-.67c.13-.182.225-.326.067-.251-.213.1-.251.083-.2-.033a.624.624,0,0,1,.67-.42,3.4,3.4,0,0,1,.989.2c.1.054.166-.084.225-.172a.758.758,0,0,1,1-.246,4.905,4.905,0,0,1,1.126.628,1.043,1.043,0,0,1,.85,1.784,1.173,1.173,0,0,1,0,1.405.583.583,0,0,0-.4-.151c.008.176.046.637.029.988a.91.91,0,0,0-.385-.049,4.051,4.051,0,0,1-1.006,1.875,5.44,5.44,0,0,0-1.072,1.977.754.754,0,0,0,.117.7,15.492,15.492,0,0,1,.687,1.659c.1.386.281.774.4,1.357a.476.476,0,0,0,.117.168,1.893,1.893,0,0,1,.343.56c.067.185.217.178.31.053a1.265,1.265,0,0,0,.286-.853c-.214-.025-.728-.3-.337-.933a5.514,5.514,0,0,1-.217-2.813,3.976,3.976,0,0,1,.92-2.176,7.528,7.528,0,0,0,1.286-1.613,4.035,4.035,0,0,0,.39-2.022,1.62,1.62,0,0,1-.519-1.49.849.849,0,0,0,.251.183,5.254,5.254,0,0,1-.017-1.374,2.235,2.235,0,0,0,.168.654c.117-.252.262-.5.4-.553a2.305,2.305,0,0,1-.218,1.021c.084.151.2.185.235.284s-.091.211-.185.286-.085.234-.05.4.084.234.183.133a1.733,1.733,0,0,0,.152-.168s.124.754-.22,1.026Z" transform="translate(228.147 3738.2)"/><path class="b" d="M396.66,254.073a.957.957,0,1,0,0-1.913.971.971,0,0,0-.388.082,4.574,4.574,0,0,1-.7-.188,4.05,4.05,0,0,1-1.08-.662,9.2,9.2,0,0,1-.8-.8,2.513,2.513,0,0,0-.185-.252c-.067-.067-.344-.15-.185.1a5.663,5.663,0,0,0,.512.687c.067.058.317.318.5.461a8.4,8.4,0,0,0,.72.486,5.445,5.445,0,0,0,.553.259c.058.016-.268.151-.268.151a2.889,2.889,0,0,1-.67-.285,6.217,6.217,0,0,1-.687-.552c-.1-.1-.4-.4-.484-.511s-.3-.444-.362-.528-.267-.109-.175.092a3.853,3.853,0,0,0,.377.587,7.523,7.523,0,0,0,.561.6,5.763,5.763,0,0,0,.536.418,8.112,8.112,0,0,0,.838.435,2.3,2.3,0,0,1,.217.3,4.029,4.029,0,0,1-.636-.175c-.176-.083-.7-.394-.779-.452s-.636-.578-.7-.663a9.609,9.609,0,0,1-.619-.9c-.072-.119-.259-.117-.176.109a5.386,5.386,0,0,0,.744,1.08,4.776,4.776,0,0,0,.855.721,6.205,6.205,0,0,0,1.03.476l.541.154a.957.957,0,0,0,.916.678Zm-.5-1.77c.014-.008.027-.018.04-.025-.014.007-.027.016-.04.025Zm-.2.806a.7.7,0,1,1,.7.7.7.7,0,0,1-.7-.7Z" transform="translate(193.63 3712.679)"/><path class="b" d="M396.348,253.714a1.029,1.029,0,1,0-.428-1.963,4.482,4.482,0,0,1-2.66-1.843c-.151-.272-.439-.113-.261.162a4.4,4.4,0,0,0,2.2,1.84.668.668,0,0,0-.183.081,4.333,4.333,0,0,1-2.119-1.8c-.142-.276-.434-.132-.268.153a4.492,4.492,0,0,0,2.311,2.016c.041.033.067.117.14.187a3.889,3.889,0,0,1-.474-.152,4.884,4.884,0,0,1-2.093-1.942c-.13-.283-.427-.151-.274.139a4.349,4.349,0,0,0,2.292,2.155,5.5,5.5,0,0,0,.836.261,1.03,1.03,0,0,0,.976.708Zm0-.148a.876.876,0,1,1,.876-.876.877.877,0,0,1-.876.876Zm-.892-1.7a4.317,4.317,0,0,1-2.354-1.825c-.144-.221.008-.21.08-.08a4.479,4.479,0,0,0,2.583,1.881.811.811,0,0,0-.1.082l-.206-.059Zm-.432.393a4.39,4.39,0,0,1-2.286-1.942c-.135-.225.016-.209.084-.075a4.165,4.165,0,0,0,2.227,1.867c.222-.123.34-.126.473-.03a1.017,1.017,0,0,0-.184.446.389.389,0,0,1-.314-.266Zm-.476.351a4.37,4.37,0,0,1-2.2-2.04c-.124-.231.026-.209.087-.071a4.436,4.436,0,0,0,2.224,2.034c.251.083.463.153.665.2a1.06,1.06,0,0,0,.015.13,7.64,7.64,0,0,1-.792-.254Z" transform="translate(193.933 3713.11)"/><path class="b" d="M418.2,266.139a.774.774,0,1,0-.773.774.774.774,0,0,0,.773-.774Zm-1.386,0a.614.614,0,1,1,.615.615.615.615,0,0,1-.615-.615Z" transform="translate(172.854 3699.662)"/><path class="b" d="M428.057,274.445a.069.069,0,0,0-.038-.089l-.233-.095a.069.069,0,0,0-.09.038.067.067,0,0,0,.039.089l.231.1a.071.071,0,0,0,.091-.039Z" transform="translate(163.335 3691.997)"/><path class="b" d="M430,274.06a.068.068,0,0,0-.039-.089l-.231-.095a.072.072,0,0,0-.091.039.068.068,0,0,0,.039.089l.232.095a.07.07,0,0,0,.09-.039Z" transform="translate(161.658 3692.329)"/><path class="b" d="M428.866,272.421a.071.071,0,0,0-.039-.09l-.233-.094a.069.069,0,0,0-.053.129l.234.093a.069.069,0,0,0,.09-.038Z" transform="translate(162.637 3693.742)"/><path class="b" d="M431.131,275.687a.072.072,0,0,0-.039-.092l-.233-.094a.069.069,0,1,0-.051.129l.232.093a.069.069,0,0,0,.091-.036Z" transform="translate(160.685 3690.926)"/><path class="b" d="M433.074,275.3a.071.071,0,0,0-.038-.091l-.234-.093a.068.068,0,0,0-.089.039.067.067,0,0,0,.038.089l.232.095a.069.069,0,0,0,.091-.038Z" transform="translate(159.009 3691.258)"/><path class="b" d="M431.935,273.663a.068.068,0,0,0-.038-.089l-.232-.093a.068.068,0,0,0-.091.037.07.07,0,0,0,.039.09l.233.095a.069.069,0,0,0,.089-.039Z" transform="translate(159.991 3692.67)"/><path class="b" d="M434.227,276.936a.067.067,0,0,0-.037-.088l-.234-.095a.068.068,0,0,0-.09.038.069.069,0,0,0,.039.09l.233.094a.067.067,0,0,0,.09-.039Z" transform="translate(158.015 3689.848)"/><path class="b" d="M436.174,276.553a.069.069,0,0,0-.038-.089l-.233-.094a.069.069,0,0,0-.051.129l.233.093a.069.069,0,0,0,.09-.038Z" transform="translate(156.336 3690.178)"/><path class="b" d="M435.033,274.913a.066.066,0,0,0-.038-.089l-.232-.1a.069.069,0,0,0-.053.128l.234.094a.066.066,0,0,0,.088-.038Z" transform="translate(157.319 3691.594)"/><path class="b" d="M437.326,278.189a.071.071,0,0,0-.037-.091l-.234-.094a.069.069,0,0,0-.051.129l.233.093a.068.068,0,0,0,.09-.038Z" transform="translate(155.343 3688.769)"/><path class="b" d="M438.135,276.168a.069.069,0,0,0-.038-.09l-.233-.094a.069.069,0,0,0-.09.038.07.07,0,0,0,.038.091l.233.094a.069.069,0,0,0,.089-.039Z" transform="translate(154.645 3690.511)"/><path class="b" d="M446.973,303.322a.07.07,0,0,0-.07.069v.251a.07.07,0,0,0,.07.069.069.069,0,0,0,.068-.069v-.251a.069.069,0,0,0-.068-.069Z" transform="translate(146.77 3666.937)"/><path class="b" d="M445.888,301.63a.069.069,0,0,0-.07.068v.251a.069.069,0,1,0,.139,0V301.7a.069.069,0,0,0-.069-.068Z" transform="translate(147.706 3668.395)"/><path class="b" d="M444.794,303.3a.07.07,0,0,0-.07.069v.252a.069.069,0,0,0,.07.068.068.068,0,0,0,.068-.068v-.252a.069.069,0,0,0-.068-.069Z" transform="translate(148.649 3666.959)"/><path class="b" d="M446.973,300.006a.07.07,0,0,0-.07.07v.251a.069.069,0,0,0,.07.069.068.068,0,0,0,.068-.069v-.251a.069.069,0,0,0-.068-.07Z" transform="translate(146.77 3669.795)"/><path class="b" d="M445.888,298.319a.069.069,0,0,0-.07.068v.251a.069.069,0,0,0,.139,0v-.251a.069.069,0,0,0-.069-.068Z" transform="translate(147.706 3671.25)"/><path class="b" d="M444.794,299.994a.068.068,0,0,0-.07.069v.25a.069.069,0,0,0,.07.069.068.068,0,0,0,.068-.069v-.25a.067.067,0,0,0-.068-.069Z" transform="translate(148.649 3669.806)"/><path class="b" d="M446.973,296.67a.069.069,0,0,0-.07.068v.252a.069.069,0,0,0,.07.068.068.068,0,0,0,.068-.068v-.252a.068.068,0,0,0-.068-.068Z" transform="translate(146.77 3672.672)"/><path class="b" d="M445.887,294.974a.069.069,0,0,0-.069.07v.25a.069.069,0,1,0,.139,0v-.25a.069.069,0,0,0-.069-.07Z" transform="translate(147.706 3674.134)"/><path class="b" d="M444.794,296.64a.07.07,0,0,0-.07.069v.252a.069.069,0,0,0,.07.068.068.068,0,0,0,.068-.068v-.252a.069.069,0,0,0-.068-.069Z" transform="translate(148.649 3672.698)"/><path class="b" d="M446.973,293.321a.071.071,0,0,0-.07.07v.251a.069.069,0,0,0,.07.07.068.068,0,0,0,.068-.07v-.251a.07.07,0,0,0-.068-.07Z" transform="translate(146.77 3675.559)"/><path class="b" d="M445.887,291.637a.069.069,0,0,0-.069.068v.252a.069.069,0,0,0,.139,0V291.7a.069.069,0,0,0-.069-.068Z" transform="translate(147.706 3677.011)"/><path class="b" d="M444.794,293.3a.069.069,0,0,0-.07.069v.251a.069.069,0,0,0,.07.069.068.068,0,0,0,.068-.069v-.251a.068.068,0,0,0-.068-.069Z" transform="translate(148.649 3675.574)"/><path class="b" d="M446.973,289.916a.07.07,0,0,0-.07.071v.251a.07.07,0,0,0,.07.069.069.069,0,0,0,.068-.069v-.251a.069.069,0,0,0-.068-.071Z" transform="translate(146.77 3678.495)"/><path class="b" d="M445.887,288.229a.069.069,0,0,0-.069.069v.252a.069.069,0,0,0,.139,0V288.3a.07.07,0,0,0-.069-.069Z" transform="translate(147.706 3679.949)"/><path class="b" d="M444.794,289.9a.07.07,0,0,0-.07.068v.252a.069.069,0,0,0,.07.068.068.068,0,0,0,.068-.069v-.251a.069.069,0,0,0-.068-.068Z" transform="translate(148.649 3678.505)"/><path class="b" d="M446.973,286.579a.07.07,0,0,0-.07.069v.251a.07.07,0,0,0,.07.069.069.069,0,0,0,.068-.069v-.251a.069.069,0,0,0-.068-.069Z" transform="translate(146.77 3681.372)"/><path class="b" d="M444.794,286.554a.07.07,0,0,0-.07.07v.251a.07.07,0,0,0,.07.07.069.069,0,0,0,.068-.07v-.251a.069.069,0,0,0-.068-.07Z" transform="translate(148.649 3681.394)"/><path class="b" d="M445.888,318.257a.07.07,0,0,0-.07.07v.251a.069.069,0,1,0,.139,0v-.251a.07.07,0,0,0-.069-.07Z" transform="translate(147.706 3654.06)"/><path class="b" d="M446.973,316.642a.07.07,0,0,0-.07.069v.251a.07.07,0,0,0,.07.07.069.069,0,0,0,.068-.07v-.251a.069.069,0,0,0-.068-.069Z" transform="translate(146.77 3655.452)"/><path class="b" d="M445.888,314.951a.069.069,0,0,0-.07.069v.25a.069.069,0,0,0,.139,0v-.25a.07.07,0,0,0-.069-.069Z" transform="translate(147.706 3656.91)"/><path class="b" d="M444.794,316.621a.069.069,0,0,0-.07.068v.252a.07.07,0,0,0,.07.07.069.069,0,0,0,.068-.07v-.252a.068.068,0,0,0-.068-.068Z" transform="translate(148.649 3655.47)"/><path class="b" d="M446.973,313.306a.069.069,0,0,0-.07.068v.252a.069.069,0,0,0,.07.068.068.068,0,0,0,.068-.068v-.252a.068.068,0,0,0-.068-.068Z" transform="translate(146.77 3658.328)"/><path class="b" d="M445.887,311.606a.069.069,0,0,0-.069.07v.25a.069.069,0,1,0,.139,0v-.25a.069.069,0,0,0-.069-.07Z" transform="translate(147.706 3659.794)"/><path class="b" d="M444.794,313.276a.07.07,0,0,0-.07.069v.252a.069.069,0,0,0,.07.068.068.068,0,0,0,.068-.068v-.252a.069.069,0,0,0-.068-.069Z" transform="translate(148.649 3658.354)"/><path class="b" d="M446.973,309.952a.07.07,0,0,0-.07.07v.251a.07.07,0,0,0,.07.068.069.069,0,0,0,.068-.068v-.251a.069.069,0,0,0-.068-.07Z" transform="translate(146.77 3661.22)"/><path class="b" d="M445.887,308.265a.069.069,0,0,0-.069.07v.251a.069.069,0,0,0,.139,0v-.251a.069.069,0,0,0-.069-.07Z" transform="translate(147.706 3662.675)"/><path class="b" d="M444.794,309.939a.069.069,0,0,0-.07.068v.252a.068.068,0,0,0,.07.068.067.067,0,0,0,.068-.068v-.252a.068.068,0,0,0-.068-.068Z" transform="translate(148.649 3661.231)"/><path class="b" d="M446.973,306.556a.07.07,0,0,0-.07.07v.251a.07.07,0,0,0,.07.069.069.069,0,0,0,.068-.069v-.251a.068.068,0,0,0-.068-.07Z" transform="translate(146.77 3664.148)"/><path class="b" d="M445.887,304.865a.069.069,0,0,0-.069.069v.25a.069.069,0,1,0,.139,0v-.25a.069.069,0,0,0-.069-.069Z" transform="translate(147.706 3665.606)"/><path class="b" d="M444.794,306.539a.069.069,0,0,0-.07.068v.251a.069.069,0,0,0,.07.07.068.068,0,0,0,.068-.07v-.251a.068.068,0,0,0-.068-.068Z" transform="translate(148.649 3664.163)"/><path class="b" d="M451.979,325.774c-.016.223-.24,2.671-.24,3.006a18.148,18.148,0,0,1-.048,2.084,4.761,4.761,0,0,1-.525,1.034,8.133,8.133,0,0,0-.4.875.882.882,0,0,1-.391.407c-.12.017-.206-.025-.294.023a.208.208,0,0,0,.157.206,6.931,6.931,0,0,0,1.094-.018c.15-.056.168-.176.192-.344a.721.721,0,0,1,.393-.448,3.243,3.243,0,0,0,.525-.226.681.681,0,0,0,.144-.591c-.078-.268-.221-.519-.245-.674a6.185,6.185,0,0,1,.2-1.474,12.83,12.83,0,0,0,.6-1.9c.043.21.62,1.386.883,1.97a4.62,4.62,0,0,1,.508,1.444,5.576,5.576,0,0,1-.334.93,2.677,2.677,0,0,0-.15.657c-.018.126-.006.2-.19.209a1.6,1.6,0,0,0-.352.047c-.012.09.1.373.519.214a.439.439,0,0,0,.6-.256c.066-.251.262-.663.532-.7a.9.9,0,0,0,.5-.26.507.507,0,0,0,.068-.486c-.071-.179-.423-.495-.465-.585a8.743,8.743,0,0,1-.6-1.951,12.452,12.452,0,0,0-.442-2.345,2.776,2.776,0,0,1-.328-1.283,2.434,2.434,0,0,1-1.814-.084c0,.131-.075.3-.091.525Z" transform="translate(144.029 3648.031)"/><path class="b" d="M446.91,273.184c-.15.009-.213-.039-.23-.218a.827.827,0,0,1,.128-.455c.054-.1.172-.2.23-.312a.127.127,0,0,1,.006.142,1.453,1.453,0,0,0-.209.608.313.313,0,0,0,.075.235Z" transform="translate(146.963 3693.77)"/><path class="b" d="M448.323,273.757a.7.7,0,0,1,.145-.344.67.67,0,0,0,.115-.159c.012.054.024.081-.034.209a.609.609,0,0,0-.068.292.377.377,0,0,1,.13.146c.032.067-.051.323-.228.163a.453.453,0,0,1-.059-.307Z" transform="translate(145.552 3692.859)"/><path class="b" d="M456.545,184.94a1.663,1.663,0,0,1,.466.937,3.852,3.852,0,0,1-.013,1.106.98.98,0,0,0,.009.447c.039.079.144.2.213.02.057.109-.02.3-.147.255a1.28,1.28,0,0,0,.594.711,1.013,1.013,0,0,1-.378-.151,1.1,1.1,0,0,1-.436-.677.923.923,0,0,1-.185-.609c-.117,0-.275.178-.275.178-.023-.029.016-.07.031-.1.082-.145.23-.286.24-.447,0-.086-.057-.208-.141-.223a.289.289,0,0,0-.244.209.488.488,0,0,0-.037.2.844.844,0,0,0,0,.106.422.422,0,0,1-.2.4.207.207,0,0,1-.239-.016.136.136,0,0,1-.034-.117.153.153,0,0,0,.165.063c.1-.041.115-.148.121-.252a.935.935,0,0,0-.1-.431.919.919,0,0,0-.629-.449,1.142,1.142,0,0,0-.505.1.651.651,0,0,1,.379-.316.573.573,0,0,0-.306.079c-.2.114-.605.573-.724.6a5.538,5.538,0,0,1,.34-.636,1.816,1.816,0,0,1,.774-.577,1.339,1.339,0,0,0-1.021.733,2.542,2.542,0,0,0-.135.328,1.594,1.594,0,0,1,.861-1.277,1.323,1.323,0,0,0-.855.751,1.178,1.178,0,0,0-.055.673.716.716,0,0,1-.141-.444,1.424,1.424,0,0,1,.669-1.175,1.65,1.65,0,0,1,1.943-.006Z" transform="translate(140.709 3769.271)"/><path class="b" d="M458.354,197.792a.486.486,0,0,0-.184.115c-.013-.081.1-.158.178-.2.151-.072.387-.2.408-.289.043.147-.243.307-.4.374Z" transform="translate(137.057 3758.245)"/><path class="b" d="M456.455,200.233a.77.77,0,0,1,.288.59c0,.077-.042.238.049.279.061.037.189.1.191.148-.025-.025-.04-.026-.085-.034-.111-.02-.268.025-.3-.088.038-.432.034-.411-.016-.6a1.356,1.356,0,0,0-.132-.3Z" transform="translate(138.535 3755.818)"/><path class="b" d="M458.827,200.178c-.085.155-.275.244-.35.4-.032-.044,0-.111.024-.158a.247.247,0,0,0-.224-.124l-.037,0c.089-.025.234-.023.332-.046a.357.357,0,0,0,.245-.123.4.4,0,0,1,.031-.038c.012.02-.022.089-.022.089Z" transform="translate(136.996 3755.942)"/><path class="b" d="M460.757,207.644a.727.727,0,0,1-.089.266.376.376,0,0,0-.029.084c-.093.065-.156-.077-.1-.168-.147-.011-.193-.1-.193-.134.117-.074.261.114.358,0a.194.194,0,0,1,.048-.048Z" transform="translate(135.176 3749.428)"/><path class="b" d="M458.765,251.071l0-.014,0,0v.011Z" transform="translate(136.543 3711.999)"/><path class="b" d="M443.17,206.891a.6.6,0,0,0,.24-.326.829.829,0,0,0-.1-.739,1.458,1.458,0,0,0,.228-.491c.016-.062.022-.144.035-.214-.022,0-.028.039-.035.056a1.366,1.366,0,0,1-.519.741.508.508,0,0,1-.325.11.643.643,0,0,1-.281-.175c.052.08.057.152.1.227a.3.3,0,0,0,.113.087.608.608,0,0,0,.539-.207c.342.3.113.783,0,.931Zm-.931,5.856c-.019.025-.041.047-.075,0-.076-.113.025-.259.05-.339a.6.6,0,0,0-.023-.165.489.489,0,0,1,.048.5Zm.631,14.429a.964.964,0,0,1-.5.016c.032-.234.128-2.11.138-2.351.016-.267.009-.532.037-.782h0c0-.193.106-1.1.129-1.4-.013-.141-.043-.3-.047-.438-.008-.119-.009-.135-.009-.31a.339.339,0,0,0-.087.15.991.991,0,0,0-.048.4,2.519,2.519,0,0,1-.048.69c-.042.265-.063.493-.087.748-.047.47-.087,2.216-.086,2.307a8.827,8.827,0,0,1-.106,1.1,2.631,2.631,0,0,1-.206.615,5.82,5.82,0,0,0-.58,1.118.919.919,0,0,1-.211.431.609.609,0,0,0,.244-.242c.084-.074.181-.056.324-.052a.543.543,0,0,1,.351.158,1.971,1.971,0,0,1-.082.381.157.157,0,0,1-.2.059.519.519,0,0,1-.308.029c-.069-.035-.108-.12-.087-.147a.8.8,0,0,1,.261-.03.65.65,0,0,0-.395-.009.2.2,0,0,0,.066.189.219.219,0,0,1-.138-.007c-.065-.028-.071-.1-.074-.161a.445.445,0,0,1,.116-.026.388.388,0,0,0-.2,0,.231.231,0,0,0,.035.191.161.161,0,0,1-.162-.165.581.581,0,0,1,.095-.024.3.3,0,0,0-.161,0,.269.269,0,0,0,.023.169c-.079.032-.145-.057-.164-.146a.666.666,0,0,1,.123-.027.378.378,0,0,0-.185.012.286.286,0,0,0,.117.232c.008.105.106.094.189.1a4.887,4.887,0,0,0,.987-.035c.146-.031.2-.306.227-.447a.594.594,0,0,1,.334-.408,2,2,0,0,1,.124.765.085.085,0,0,0,.126,0,1.617,1.617,0,0,1,.311-1.031c-.124.047-.466.191-.466.191a2.6,2.6,0,0,1,.456-.295c.178-.085.154-.315.154-.484a.976.976,0,0,0-.144-.438.318.318,0,0,0-.179.174,1.35,1.35,0,0,1-.062-.317,1.15,1.15,0,0,0-.027.451,1.127,1.127,0,0,0-.037.509,3,3,0,0,0-.619.483.79.79,0,0,0-.636-.1,8.673,8.673,0,0,1,.626-1.092,2.331,2.331,0,0,0,.174-.428,1.34,1.34,0,0,0,.591-.013.525.525,0,0,0,.1.278,1.134,1.134,0,0,1-.028-.388,5.069,5.069,0,0,1,.365-1.447,9.861,9.861,0,0,0,.434-1.3,9.725,9.725,0,0,0,.15-1.233,5.065,5.065,0,0,0-.08-.739,3.74,3.74,0,0,1,.016-.429,1.066,1.066,0,0,0-.152.485,2.282,2.282,0,0,0,.008.446,6.7,6.7,0,0,1-.207,1.706c-.051.178-.258.768-.32.944a5.7,5.7,0,0,0-.31,1.42Zm-.007-5.362a2.838,2.838,0,0,0,1.728-.02c.138-.063.854-.289,1.045-.342-.023-.221-.282-3.665-.206-4.408a4.707,4.707,0,0,1,.285-1.041,2.634,2.634,0,0,0,.26-1.07l-.074.133a.75.75,0,0,1-.131.19,2.39,2.39,0,0,0-.333.571.225.225,0,0,1-.076-.106.6.6,0,0,0-.013.127c-.045-.012-.125-.088-.178-.279a.3.3,0,0,0,0,.12c-.155-.161-.3-.337-.032-1.027a.525.525,0,0,1-.467.117,5.24,5.24,0,0,0,.436-.793,1.489,1.489,0,0,1,.435-.564,14.192,14.192,0,0,1-.806-1.5,2.48,2.48,0,0,1,.279-1.743,16.483,16.483,0,0,0,.928-1.546,2.958,2.958,0,0,0,.378.553c.159.21.3.412.464.616.035.068.086.129.124.2a.717.717,0,0,1,.113.418c-.068.464-.292.855-.358,1.327a3.18,3.18,0,0,1-.57,1.384,4.71,4.71,0,0,1-.6.492,3.762,3.762,0,0,0-.557.91,1.46,1.46,0,0,1-.127.189.642.642,0,0,0,.344-.205c.067-.057.169-.272.294-.412a.2.2,0,0,1-.03.127,3.131,3.131,0,0,0-.335.937.427.427,0,0,0,.059.331,2.472,2.472,0,0,1,.455-1.044c0,.061-.471.966-.279,1.219A2.071,2.071,0,0,1,445.6,215c.073-.105.07-.277.166-.362a2.928,2.928,0,0,0-.081.335c-.1.237-.283.428-.262.709.015-.018.129-.25.218-.37a1.84,1.84,0,0,0,.188-.276,2.912,2.912,0,0,1,.306-.667,2.387,2.387,0,0,0,.584-.928,4.064,4.064,0,0,1,.574-1.1c.159-.292.286-.608.42-.917a5.6,5.6,0,0,0,.209-.639,1.122,1.122,0,0,0,.1-.461c.016-.224-.12-.37-.182-.566a2.158,2.158,0,0,0-.131-.255,5.583,5.583,0,0,0-.249-.578.579.579,0,0,0-.113-.2c-.124-.113-.344-.022-.471.06a.945.945,0,0,0-.364.441,2.979,2.979,0,0,1-.531-.661.515.515,0,0,1-.041-.079,1.484,1.484,0,0,1-.117-.272l-.014-.03a1.968,1.968,0,0,1-.089-.438,1.771,1.771,0,0,1,.044-.322,1.861,1.861,0,0,1,.106-.238.676.676,0,0,1,.45-.306c.095,0,.454.45.454.45a2.836,2.836,0,0,0-.588-.948.961.961,0,0,0-.993-.018c-.086.044-.056.035,0,.021a1.5,1.5,0,0,1,.309-.065.8.8,0,0,1,.754.393,1.386,1.386,0,0,0-.746.446.692.692,0,0,1-.471.174,5.9,5.9,0,0,0-1.967.316,2,2,0,0,0-.519.42.517.517,0,0,1,.014-.054,1.339,1.339,0,0,0-.231-1.024.761.761,0,0,1,.211-.338.679.679,0,0,1,.4-.148c.081,0,.133-.013.149-.044-.06.025-.107.006-.21,0a.624.624,0,0,0-.413.127,1.218,1.218,0,0,0-.371.853c.009.037-.006.078.014.12a2.53,2.53,0,0,1,.157-.382.261.261,0,0,1,.029.2,2.067,2.067,0,0,1-.136.311,3.222,3.222,0,0,1-.47.754c-.035.038-.06.084-.086.117a.519.519,0,0,0-.068.317,2.645,2.645,0,0,0,.457.975,2.628,2.628,0,0,1-.07,1.121c-.028.058-.219.514-.3.693a14.556,14.556,0,0,1-.756,1.7,1.292,1.292,0,0,1-.533.557c-.062.034-.306.192-.378.216a2.342,2.342,0,0,0-.261.168c-.175.172-.244.4-.453.553-.021.024-.055.032-.071.051a.654.654,0,0,0,.438-.2c.226-.235.448-.359.657-.578a.163.163,0,0,1,.036.137.233.233,0,0,0,.117-.1.248.248,0,0,1,.047.186c.072-.035.083-.077.116-.119a.283.283,0,0,1,.073.22c.037-.009.061-.06.088-.105a.487.487,0,0,1-.02.428.473.473,0,0,1,.12.1.5.5,0,0,0,.081-.161c.092-.252.106-.52.161-.62s.336-.511.394-.587a5.837,5.837,0,0,1,.4-2.072,11.962,11.962,0,0,0-.254,1.745c0,.375-.013.717-.021,1.112.035.39.073.833.12,1.238.076.58.113,1.193.19,1.756a33.059,33.059,0,0,1-.155,3.749c-.02.06.272.248.467.295a.428.428,0,0,0,.133.261c-.008-.25.166-2.715.206-3.01.051-.362.151-1.04.208-1.295a1.207,1.207,0,0,1,.023.457c-.107.578-.2,3.312-.263,3.9a3.374,3.374,0,0,0,.322.17Zm1.668-12.528c-.133.272-.293.584-.633.638a.9.9,0,0,1-.654-.2c.5.123.586.03.742-.031.39-.183.769-1.085.9-1.223-.073.09-.337.795-.355.815Z" transform="translate(153.43 3751.604)"/><path class="b" d="M443.482,272.547a.137.137,0,0,1-.14-.086.548.548,0,0,1-.01-.321.617.617,0,0,1,.182-.3,2.838,2.838,0,0,1,.289-.244c.025.129-.3.407-.315.642a.634.634,0,0,0-.005.308Z" transform="translate(149.866 3694.291)"/><path class="b" d="M445.114,272.738a.762.762,0,0,1-.037-.132c-.039-.231.152-.5.244-.708a.16.16,0,0,0,0-.14,2.857,2.857,0,0,1-.245.3.862.862,0,0,0-.168.553.153.153,0,0,0,.209.131Z" transform="translate(148.495 3694.15)"/><path class="b" d="M474.915,330.46c.075.493.162.99.282,1.478.055.186.148.471.191.578a1.376,1.376,0,0,1-.418.192c-.012-.033-.023-.048-.041-.1-.15-.413-.391-.8-.563-1.211a9.28,9.28,0,0,0-.609-1.133,2.308,2.308,0,0,0,.159.491c.251.67.6,1.289.844,1.959a1.462,1.462,0,0,1,.106.419.736.736,0,0,1-.044.315,7.486,7.486,0,0,0-.385,1.014c-.023.193-.016.224-.033.4a.118.118,0,0,1-.088.065,2.1,2.1,0,0,0-.456.062.352.352,0,0,0,.09.249.092.092,0,0,1-.034.027l.007.054a3.861,3.861,0,0,0,1-.019.715.715,0,0,0,.227-.472.987.987,0,0,1,.2-.412c.032-.037.178-.141.21-.114a1.912,1.912,0,0,1,.182.784.1.1,0,0,0,.152-.007,1.848,1.848,0,0,1,.192-1.1,1.775,1.775,0,0,0-.457.271,1.744,1.744,0,0,1,.45-.422c.056-.017.083-.1.082-.161a.86.86,0,0,0-.346-.572.364.364,0,0,0-.176.179c-.067-.013-.171-.169-.2-.3a.849.849,0,0,0,.106.522,1.046,1.046,0,0,0-.052.567,1.086,1.086,0,0,0-.459.525.765.765,0,0,0-.492-.075,5.4,5.4,0,0,1,.381-.972c.15-.412.114-.53.105-.585a1.333,1.333,0,0,0,.483-.217.787.787,0,0,0,.223.291,5.359,5.359,0,0,1-.395-1.1,13.017,13.017,0,0,1-.259-1.595c-.024-.3-.067-.567-.1-.857a4.158,4.158,0,0,0-.273-.878c-.054-.172-.354-.745-.414-1.007a1.185,1.185,0,0,0,.04.542c.06.2.159.427.221.608a2.992,2.992,0,0,1,.162.515c.068.3.13.6.168.9.016.131.007.113.034.292Zm-.1,4.712a.557.557,0,0,1-.382.01.417.417,0,0,1-.385,0,.231.231,0,0,1-.082-.135c.038-.047.373-.043.433-.064a.174.174,0,0,0,.113-.1.566.566,0,0,0,.022-.17.448.448,0,0,1,.458.159.388.388,0,0,1-.178.3Z" transform="translate(123.617 3646.003)"/></g></svg>